<svg width="232" height="120" viewBox="0 0 232 120" fill="none" xmlns="http://www.w3.org/2000/svg">
<path d="M0.25 0.25H172C204.999 0.25 231.75 27.001 231.75 60C231.75 92.999 204.999 119.75 172 119.75H0.25V0.25Z" fill="#040A20" stroke="#97C1C8" stroke-width="0.5"/>
<rect x="123" y="10" width="100" height="100" rx="50" fill="#97C1C8"/>
<path d="M191.75 61.6458C191.422 65.1921 190.091 68.5717 187.913 71.3891C185.734 74.2066 182.798 76.3454 179.449 77.5553C176.099 78.7652 172.475 78.9961 168.999 78.221C165.523 77.446 162.339 75.697 159.821 73.1787C157.303 70.6604 155.554 67.477 154.779 64.001C154.003 60.525 154.234 56.9002 155.444 53.5506C156.654 50.2011 158.793 47.2653 161.61 45.087C164.428 42.9086 167.807 41.5777 171.354 41.25C169.277 44.0589 168.278 47.5197 168.538 51.0029C168.798 54.4862 170.299 57.7605 172.769 60.2304C175.239 62.7003 178.513 64.2016 181.997 64.4614C185.48 64.7211 188.941 63.7221 191.75 61.6458V61.6458Z" stroke="#040A20" stroke-width="4.16667" stroke-linecap="round" stroke-linejoin="round"/>
</svg>
