<svg width="232" height="120" viewBox="0 0 232 120" fill="none" xmlns="http://www.w3.org/2000/svg">
<path d="M0.25 0.25H172C204.999 0.25 231.75 27.001 231.75 60C231.75 92.999 204.999 119.75 172 119.75H0.25V0.25Z" fill="white" stroke="#56669D" stroke-width="0.5"/>
<rect x="123" y="10" width="100" height="100" rx="50" fill="#56669D"/>
<path d="M173 70.4163C178.753 70.4163 183.416 65.7526 183.416 59.9997C183.416 54.2467 178.753 49.583 173 49.583C167.247 49.583 162.583 54.2467 162.583 59.9997C162.583 65.7526 167.247 70.4163 173 70.4163Z" stroke="white" stroke-width="4.16667" stroke-linecap="round" stroke-linejoin="round"/>
<path d="M173 37.0825V41.2492" stroke="white" stroke-width="4.16667" stroke-linecap="round" stroke-linejoin="round"/>
<path d="M173 78.7495V82.9162" stroke="white" stroke-width="4.16667" stroke-linecap="round" stroke-linejoin="round"/>
<path d="M156.792 43.7915L159.75 46.7498" stroke="white" stroke-width="4.16667" stroke-linecap="round" stroke-linejoin="round"/>
<path d="M186.25 73.249L189.208 76.2074" stroke="white" stroke-width="4.16667" stroke-linecap="round" stroke-linejoin="round"/>
<path d="M150.083 59.9995H154.25" stroke="white" stroke-width="4.16667" stroke-linecap="round" stroke-linejoin="round"/>
<path d="M191.75 59.9995H195.917" stroke="white" stroke-width="4.16667" stroke-linecap="round" stroke-linejoin="round"/>
<path d="M156.792 76.2074L159.75 73.249" stroke="white" stroke-width="4.16667" stroke-linecap="round" stroke-linejoin="round"/>
<path d="M186.25 46.7498L189.208 43.7915" stroke="white" stroke-width="4.16667" stroke-linecap="round" stroke-linejoin="round"/>
</svg>
