<svg width="29" height="29" viewBox="0 0 29 29" fill="none" xmlns="http://www.w3.org/2000/svg">
<path d="M23.212 2C22.0868 2 21.0078 2.44697 20.2122 3.24257C19.4166 4.03817 18.9696 5.11724 18.9696 6.2424V23.212C18.9696 24.3371 19.4166 25.4162 20.2122 26.2118C21.0078 27.0074 22.0868 27.4544 23.212 27.4544C24.3371 27.4544 25.4162 27.0074 26.2118 26.2118C27.0074 25.4162 27.4544 24.3371 27.4544 23.212C27.4544 22.0868 27.0074 21.0078 26.2118 20.2122C25.4162 19.4166 24.3371 18.9696 23.212 18.9696H6.2424C5.11724 18.9696 4.03817 19.4166 3.24257 20.2122C2.44697 21.0078 2 22.0868 2 23.212C2 24.3371 2.44697 25.4162 3.24257 26.2118C4.03817 27.0074 5.11724 27.4544 6.2424 27.4544C7.36755 27.4544 8.44662 27.0074 9.24223 26.2118C10.0378 25.4162 10.4848 24.3371 10.4848 23.212V6.2424C10.4848 5.11724 10.0378 4.03817 9.24223 3.24257C8.44662 2.44697 7.36755 2 6.2424 2C5.11724 2 4.03817 2.44697 3.24257 3.24257C2.44697 4.03817 2 5.11724 2 6.2424C2 7.36755 2.44697 8.44662 3.24257 9.24223C4.03817 10.0378 5.11724 10.4848 6.2424 10.4848H23.212C24.3371 10.4848 25.4162 10.0378 26.2118 9.24223C27.0074 8.44662 27.4544 7.36755 27.4544 6.2424C27.4544 5.11724 27.0074 4.03817 26.2118 3.24257C25.4162 2.44697 24.3371 2 23.212 2Z" stroke="#5E71A2" stroke-width="3" stroke-linecap="round" stroke-linejoin="round"/>
</svg>
