<svg width="32" height="32" viewBox="0 0 32 32" fill="none" xmlns="http://www.w3.org/2000/svg">
<path d="M16.1413 30.2827C23.9514 30.2827 30.2827 23.9514 30.2827 16.1413C30.2827 8.33129 23.9514 2 16.1413 2C8.33129 2 2 8.33129 2 16.1413C2 23.9514 8.33129 30.2827 16.1413 30.2827Z" stroke="black" stroke-width="2.28089" stroke-linecap="round" stroke-linejoin="round"/>
<path d="M12.0264 11.899C12.3588 10.9539 13.0151 10.157 13.8788 9.64935C14.7426 9.14171 15.7581 8.95615 16.7456 9.12553C17.733 9.2949 18.6287 9.80829 19.2739 10.5748C19.9191 11.3412 20.2723 12.3113 20.2708 13.3132C20.2708 16.1414 16.0284 17.5556 16.0284 17.5556" stroke="black" stroke-width="2.28089" stroke-linecap="round" stroke-linejoin="round"/>
<path d="M16.1406 23.2119H16.1567" stroke="black" stroke-width="2.28089" stroke-linecap="round" stroke-linejoin="round"/>
</svg>
