<svg width="32" height="29" viewBox="0 0 32 29" fill="none" xmlns="http://www.w3.org/2000/svg">
<path d="M27.4544 7.65625H4.82827C3.26626 7.65625 2 8.92251 2 10.4845V24.6258C2 26.1879 3.26626 27.4541 4.82827 27.4541H27.4544C29.0164 27.4541 30.2827 26.1879 30.2827 24.6258V10.4845C30.2827 8.92251 29.0164 7.65625 27.4544 7.65625Z" stroke="black" stroke-width="2.28089" stroke-linecap="round" stroke-linejoin="round"/>
<path d="M21.7975 27.4544V4.82827C21.7975 4.07816 21.4995 3.35878 20.9691 2.82838C20.4387 2.29798 19.7193 2 18.9692 2H13.3127C12.5626 2 11.8432 2.29798 11.3128 2.82838C10.7824 3.35878 10.4844 4.07816 10.4844 4.82827V27.4544" stroke="black" stroke-width="2.28089" stroke-linecap="round" stroke-linejoin="round"/>
</svg>
